<svg width="1088" height="956" viewBox="0 0 1088 956" fill="none" xmlns="http://www.w3.org/2000/svg">
<path d="M0 -202C0 -206.418 3.58172 -210 8 -210H344C348.418 -210 352 -206.418 352 -202V134C352 138.418 348.418 142 344 142H7.99999C3.58171 142 0 138.418 0 134V-202Z" fill="black" fill-opacity="0.2"/>
<path d="M8 158.5L344 158.5C348.142 158.5 351.5 161.858 351.5 166V305C351.5 309.142 348.142 312.5 344 312.5H7.99999C3.85786 312.5 0.5 309.142 0.5 305L0.5 166C0.5 161.858 3.85786 158.5 8 158.5Z" fill="black" fill-opacity="0.2"/>
<path d="M8 158.5L344 158.5C348.142 158.5 351.5 161.858 351.5 166V305C351.5 309.142 348.142 312.5 344 312.5H7.99999C3.85786 312.5 0.5 309.142 0.5 305L0.5 166C0.5 161.858 3.85786 158.5 8 158.5Z" stroke="#1D212B"/>
<path d="M179.792 268.764V254.46H149.456V240.348L179.312 202.236H192.56V243.996H202.544V254.46H192.56V268.764H179.792ZM160.016 243.708V243.996H179.792V218.46H179.6L160.016 243.708Z" fill="#363A45"/>
<path d="M0 337C0 332.582 3.58172 329 8 329H344C348.418 329 352 332.582 352 337V673C352 677.418 348.418 681 344 681H7.99999C3.58171 681 0 677.418 0 673V337Z" fill="black" fill-opacity="0.2"/>
<path fill-rule="evenodd" clip-rule="evenodd" d="M120.5 466C124.918 466 128.5 469.582 128.5 474V536C128.5 540.418 124.918 544 120.5 544C116.082 544 112.5 540.418 112.5 536V474C112.5 469.582 116.082 466 120.5 466ZM175.386 484.349C179.804 484.349 183.386 487.931 183.386 492.349V536C183.386 540.418 179.804 544 175.386 544C170.967 544 167.386 540.418 167.386 536V492.349C167.386 487.931 170.967 484.349 175.386 484.349ZM231.5 497.29C235.918 497.29 239.5 500.871 239.5 505.29V536C239.5 540.418 235.918 544 231.5 544C227.082 544 223.5 540.418 223.5 536V505.29C223.5 500.871 227.082 497.29 231.5 497.29Z" fill="#20242F"/>
<path d="M0 705C0 700.582 3.58172 697 8 697H344C348.418 697 352 700.582 352 705V1041C352 1045.42 348.418 1049 344 1049H7.99999C3.58171 1049 0 1045.42 0 1041V705Z" fill="black" fill-opacity="0.2"/>
<path d="M74.5 853C74.5 848.582 78.0817 845 82.5 845H122.5C126.918 845 130.5 848.582 130.5 853V893C130.5 897.418 126.918 901 122.5 901H82.5C78.0817 901 74.5 897.418 74.5 893V853Z" fill="#171A21"/>
<path d="M98.4198 868.54C97.6198 868.2 97.2798 867.21 97.7598 866.49C98.7298 865.05 100.35 864 102.49 864C104.84 864 106.45 865.07 107.27 866.41C107.97 867.56 108.38 869.71 107.3 871.31C106.1 873.08 104.95 873.62 104.33 874.76C104.18 875.03 104.09 875.25 104.03 875.7C103.94 876.43 103.34 877 102.6 877C101.73 877 101.02 876.25 101.12 875.38C101.18 874.87 101.3 874.34 101.58 873.84C102.35 872.45 103.83 871.63 104.69 870.4C105.6 869.11 105.09 866.7 102.51 866.7C101.34 866.7 100.58 867.31 100.11 868.04C99.7598 868.61 99.0298 868.79 98.4198 868.54ZM104.5 881C104.5 882.1 103.6 883 102.5 883C101.4 883 100.5 882.1 100.5 881C100.5 879.9 101.4 879 102.5 879C103.6 879 104.5 879.9 104.5 881Z" fill="#363A45"/>
<path d="M140.5 854C140.5 849.582 144.082 846 148.5 846H269.5C273.918 846 277.5 849.582 277.5 854V892C277.5 896.418 273.918 900 269.5 900H148.5C144.082 900 140.5 896.418 140.5 892V854Z" fill="#171A21"/>
<path d="M368 -104.868C368 -109.286 371.582 -112.868 376 -112.868H712C716.418 -112.868 720 -109.286 720 -104.868V231.132C720 235.55 716.418 239.132 712 239.132H376C371.582 239.132 368 235.55 368 231.132V-104.868Z" fill="black" fill-opacity="0.2"/>
<path d="M442.5 43.1318C442.5 38.7136 446.082 35.1318 450.5 35.1318H490.5C494.918 35.1318 498.5 38.7136 498.5 43.1318V83.1318C498.5 87.5501 494.918 91.1318 490.5 91.1318H450.5C446.082 91.1318 442.5 87.5501 442.5 83.1318V43.1318Z" fill="#171A21"/>
<path d="M466.42 58.6718C465.62 58.3318 465.28 57.3418 465.76 56.6218C466.73 55.1818 468.35 54.1318 470.49 54.1318C472.84 54.1318 474.45 55.2018 475.27 56.5418C475.97 57.6918 476.38 59.8418 475.3 61.4418C474.1 63.2118 472.95 63.7518 472.33 64.8918C472.18 65.1618 472.09 65.3818 472.03 65.8318C471.94 66.5618 471.34 67.1318 470.6 67.1318C469.73 67.1318 469.02 66.3818 469.12 65.5118C469.18 65.0018 469.3 64.4718 469.58 63.9718C470.35 62.5818 471.83 61.7618 472.69 60.5318C473.6 59.2418 473.09 56.8318 470.51 56.8318C469.34 56.8318 468.58 57.4418 468.11 58.1718C467.76 58.7418 467.03 58.9218 466.42 58.6718ZM472.5 71.1318C472.5 72.2318 471.6 73.1318 470.5 73.1318C469.4 73.1318 468.5 72.2318 468.5 71.1318C468.5 70.0318 469.4 69.1318 470.5 69.1318C471.6 69.1318 472.5 70.0318 472.5 71.1318Z" fill="#363A45"/>
<path d="M508.5 44.1318C508.5 39.7136 512.082 36.1318 516.5 36.1318H637.5C641.918 36.1318 645.5 39.7136 645.5 44.1318V82.1318C645.5 86.5501 641.918 90.1318 637.5 90.1318H516.5C512.082 90.1318 508.5 86.5501 508.5 82.1318V44.1318Z" fill="#171A21"/>
<path d="M376 255.632L712 255.632C716.142 255.632 719.5 258.99 719.5 263.132V402.132C719.5 406.274 716.142 409.632 712 409.632H376C371.858 409.632 368.5 406.274 368.5 402.132V263.132C368.5 258.99 371.858 255.632 376 255.632Z" fill="black" fill-opacity="0.2"/>
<path d="M376 255.632L712 255.632C716.142 255.632 719.5 258.99 719.5 263.132V402.132C719.5 406.274 716.142 409.632 712 409.632H376C371.858 409.632 368.5 406.274 368.5 402.132V263.132C368.5 258.99 371.858 255.632 376 255.632Z" stroke="#1D212B"/>
<path d="M544 367C535.616 367 528.928 363.896 523.936 357.688C519.008 351.48 516.544 343.128 516.544 332.632C516.544 322.136 519.04 313.784 524.032 307.576C529.024 301.368 535.712 298.264 544.096 298.264C552.544 298.264 559.2 301.368 564.064 307.576C568.992 313.72 571.456 322.072 571.456 332.632C571.456 343.128 568.992 351.48 564.064 357.688C559.2 363.896 552.512 367 544 367ZM544.096 355.864C553.248 355.864 557.824 348.12 557.824 332.632C557.824 325.336 556.704 319.64 554.464 315.544C552.224 311.448 548.768 309.4 544.096 309.4C539.36 309.4 535.84 311.448 533.536 315.544C531.296 319.64 530.176 325.336 530.176 332.632C530.176 339.928 531.296 345.624 533.536 349.72C535.84 353.816 539.36 355.864 544.096 355.864Z" fill="#363A45"/>
<path d="M368 434.132C368 429.714 371.582 426.132 376 426.132H712C716.418 426.132 720 429.714 720 434.132V770.132C720 774.55 716.418 778.132 712 778.132H376C371.582 778.132 368 774.55 368 770.132V434.132Z" fill="black" fill-opacity="0.2"/>
<path d="M368 802.132C368 797.714 371.582 794.132 376 794.132H712C716.418 794.132 720 797.714 720 802.132V1138.13C720 1142.55 716.418 1146.13 712 1146.13H376C371.582 1146.13 368 1142.55 368 1138.13V802.132Z" fill="black" fill-opacity="0.2"/>
<path fill-rule="evenodd" clip-rule="evenodd" d="M488.5 931.132C492.918 931.132 496.5 934.714 496.5 939.132V1001.13C496.5 1005.55 492.918 1009.13 488.5 1009.13C484.082 1009.13 480.5 1005.55 480.5 1001.13V939.132C480.5 934.714 484.082 931.132 488.5 931.132ZM543.386 949.481C547.804 949.481 551.386 953.062 551.386 957.481V1001.13C551.386 1005.55 547.804 1009.13 543.386 1009.13C538.967 1009.13 535.386 1005.55 535.386 1001.13V957.481C535.386 953.062 538.967 949.481 543.386 949.481ZM599.5 962.422C603.918 962.422 607.5 966.003 607.5 970.422V1001.13C607.5 1005.55 603.918 1009.13 599.5 1009.13C595.082 1009.13 591.5 1005.55 591.5 1001.13V970.422C591.5 966.003 595.082 962.422 599.5 962.422Z" fill="#20242F"/>
<path d="M736 -202C736 -206.418 739.582 -210 744 -210H1080C1084.42 -210 1088 -206.418 1088 -202V134C1088 138.418 1084.42 142 1080 142H744C739.582 142 736 138.418 736 134V-202Z" fill="black" fill-opacity="0.2"/>
<path d="M744 158.5L1080 158.5C1084.14 158.5 1087.5 161.858 1087.5 166V305C1087.5 309.142 1084.14 312.5 1080 312.5H744C739.858 312.5 736.5 309.142 736.5 305V166C736.5 161.858 739.858 158.5 744 158.5Z" fill="black" fill-opacity="0.2"/>
<path d="M744 158.5L1080 158.5C1084.14 158.5 1087.5 161.858 1087.5 166V305C1087.5 309.142 1084.14 312.5 1080 312.5H744C739.858 312.5 736.5 309.142 736.5 305V166C736.5 161.858 739.858 158.5 744 158.5Z" stroke="#1D212B"/>
<path d="M915.792 268.764V254.46H885.456V240.348L915.312 202.236H928.56V243.996H938.544V254.46H928.56V268.764H915.792ZM896.016 243.708V243.996H915.792V218.46H915.6L896.016 243.708Z" fill="#363A45"/>
<path d="M736 337C736 332.582 739.582 329 744 329H1080C1084.42 329 1088 332.582 1088 337V673C1088 677.418 1084.42 681 1080 681H744C739.582 681 736 677.418 736 673V337Z" fill="black" fill-opacity="0.2"/>
<path fill-rule="evenodd" clip-rule="evenodd" d="M856.5 466C860.918 466 864.5 469.582 864.5 474V536C864.5 540.418 860.918 544 856.5 544C852.082 544 848.5 540.418 848.5 536V474C848.5 469.582 852.082 466 856.5 466ZM911.386 484.349C915.804 484.349 919.386 487.931 919.386 492.349V536C919.386 540.418 915.804 544 911.386 544C906.967 544 903.386 540.418 903.386 536V492.349C903.386 487.931 906.967 484.349 911.386 484.349ZM967.5 497.29C971.918 497.29 975.5 500.871 975.5 505.29V536C975.5 540.418 971.918 544 967.5 544C963.082 544 959.5 540.418 959.5 536V505.29C959.5 500.871 963.082 497.29 967.5 497.29Z" fill="#20242F"/>
<path d="M736 705C736 700.582 739.582 697 744 697H1080C1084.42 697 1088 700.582 1088 705V1041C1088 1045.42 1084.42 1049 1080 1049H744C739.582 1049 736 1045.42 736 1041V705Z" fill="black" fill-opacity="0.2"/>
<path d="M810.5 853C810.5 848.582 814.082 845 818.5 845H858.5C862.918 845 866.5 848.582 866.5 853V893C866.5 897.418 862.918 901 858.5 901H818.5C814.082 901 810.5 897.418 810.5 893V853Z" fill="#171A21"/>
<path d="M834.42 868.54C833.62 868.2 833.28 867.21 833.76 866.49C834.73 865.05 836.35 864 838.49 864C840.84 864 842.45 865.07 843.27 866.41C843.97 867.56 844.38 869.71 843.3 871.31C842.1 873.08 840.95 873.62 840.33 874.76C840.18 875.03 840.09 875.25 840.03 875.7C839.94 876.43 839.34 877 838.6 877C837.73 877 837.02 876.25 837.12 875.38C837.18 874.87 837.3 874.34 837.58 873.84C838.35 872.45 839.83 871.63 840.69 870.4C841.6 869.11 841.09 866.7 838.51 866.7C837.34 866.7 836.58 867.31 836.11 868.04C835.76 868.61 835.03 868.79 834.42 868.54ZM840.5 881C840.5 882.1 839.6 883 838.5 883C837.4 883 836.5 882.1 836.5 881C836.5 879.9 837.4 879 838.5 879C839.6 879 840.5 879.9 840.5 881Z" fill="#363A45"/>
<path d="M876.5 854C876.5 849.582 880.082 846 884.5 846H1005.5C1009.92 846 1013.5 849.582 1013.5 854V892C1013.5 896.418 1009.92 900 1005.5 900H884.5C880.082 900 876.5 896.418 876.5 892V854Z" fill="#171A21"/>
</svg>
