<svg width="336" height="640" viewBox="0 0 336 640" fill="none" xmlns="http://www.w3.org/2000/svg">
<g clip-path="url(#clip0_702_67337)">
<path d="M0.5 -240.604C0.5 -245.023 4.08172 -248.604 8.5 -248.604H100.882C105.301 -248.604 108.882 -245.023 108.882 -240.604V95.3955C108.882 99.8138 105.301 103.396 100.882 103.396H8.5C4.08173 103.396 0.5 99.8138 0.5 95.3955V-240.604Z" fill="black" fill-opacity="0.2"/>
<path d="M8.5 111.896H100.882C105.024 111.896 108.382 115.253 108.382 119.396L108.382 211.396C108.382 215.538 105.024 218.896 100.882 218.896H8.5C4.35787 218.896 1 215.538 1 211.396L1 119.396C1 115.253 4.35786 111.896 8.5 111.896Z" fill="black" fill-opacity="0.2"/>
<path d="M8.5 111.896H100.882C105.024 111.896 108.382 115.253 108.382 119.396L108.382 211.396C108.382 215.538 105.024 218.896 100.882 218.896H8.5C4.35787 218.896 1 215.538 1 211.396L1 119.396C1 115.253 4.35786 111.896 8.5 111.896Z" stroke="#1D212B"/>
<path d="M58.483 198.66V184.356H28.147V170.244L58.003 132.132H71.251V173.892H81.235V184.356H71.251V198.66H58.483ZM38.707 173.604V173.892H58.483V148.356H58.291L38.707 173.604Z" fill="#363A45"/>
<path d="M0.5 235.396C0.5 230.977 4.08172 227.396 8.5 227.396H100.882C105.301 227.396 108.882 230.977 108.882 235.396V419.396C108.882 423.814 105.301 427.396 100.882 427.396H8.5C4.08173 427.396 0.5 423.814 0.5 419.396V235.396Z" fill="black" fill-opacity="0.2"/>
<path fill-rule="evenodd" clip-rule="evenodd" d="M18.8568 301.896C21.7095 301.896 24.0221 304.237 24.0221 307.126V347.665C24.0221 350.554 21.7095 352.896 18.8568 352.896C16.004 352.896 13.6914 350.554 13.6914 347.665V307.126C13.6914 304.237 16.004 301.896 18.8568 301.896ZM54.2947 313.893C57.1475 313.893 59.4601 316.235 59.4601 319.124V347.665C59.4601 350.554 57.1475 352.896 54.2947 352.896C51.442 352.896 49.1294 350.554 49.1294 347.665V319.124C49.1294 316.235 51.442 313.893 54.2947 313.893ZM90.5261 322.354C93.3788 322.354 95.6914 324.696 95.6914 327.585V347.665C95.6914 350.554 93.3788 352.896 90.5261 352.896C87.6733 352.896 85.3607 350.554 85.3607 347.665V327.585C85.3607 324.696 87.6733 322.354 90.5261 322.354Z" fill="#20242F"/>
<path d="M0.5 443.396C0.5 438.977 4.08172 435.396 8.5 435.396H100.882C105.301 435.396 108.882 438.977 108.882 443.396V627.396C108.882 631.814 105.301 635.396 100.882 635.396H8.5C4.08173 635.396 0.5 631.814 0.5 627.396V443.396Z" fill="black" fill-opacity="0.2"/>
<path d="M4.69141 527.396C4.69141 522.977 8.27313 519.396 12.6914 519.396H28.6914C33.1097 519.396 36.6914 522.977 36.6914 527.396V543.396C36.6914 547.814 33.1097 551.396 28.6914 551.396H12.6914C8.27313 551.396 4.69141 547.814 4.69141 543.396V527.396Z" fill="#171A21"/>
<path d="M16.6112 530.936C15.8112 530.596 15.4712 529.606 15.9512 528.886C16.9212 527.446 18.5412 526.396 20.6812 526.396C23.0312 526.396 24.6412 527.466 25.4612 528.806C26.1612 529.956 26.5712 532.106 25.4912 533.706C24.2912 535.476 23.1412 536.016 22.5212 537.156C22.3712 537.426 22.2812 537.646 22.2212 538.096C22.1312 538.826 21.5312 539.396 20.7912 539.396C19.9212 539.396 19.2112 538.646 19.3112 537.776C19.3712 537.266 19.4912 536.736 19.7712 536.236C20.5412 534.846 22.0212 534.026 22.8812 532.796C23.7912 531.506 23.2812 529.096 20.7012 529.096C19.5312 529.096 18.7712 529.706 18.3012 530.436C17.9512 531.006 17.2212 531.186 16.6112 530.936ZM22.6912 543.396C22.6912 544.496 21.7912 545.396 20.6912 545.396C19.5912 545.396 18.6912 544.496 18.6912 543.396C18.6912 542.296 19.5912 541.396 20.6912 541.396C21.7912 541.396 22.6912 542.296 22.6912 543.396Z" fill="#363A45"/>
<path d="M40.6914 527.396C40.6914 522.977 44.2731 519.396 48.6914 519.396H96.6914C101.11 519.396 104.691 522.977 104.691 527.396V543.396C104.691 547.814 101.11 551.396 96.6914 551.396H48.6914C44.2731 551.396 40.6914 547.814 40.6914 543.396V527.396Z" fill="#171A21"/>
<path d="M113.809 -41.3457C113.809 -45.764 117.39 -49.3457 121.809 -49.3457H214.191C218.609 -49.3457 222.191 -45.764 222.191 -41.3457V144.236C222.191 148.655 218.609 152.236 214.191 152.236H121.809C117.39 152.236 113.809 148.654 113.809 144.236V-41.3457Z" fill="black" fill-opacity="0.2"/>
<path d="M118 43.4453C118 39.027 121.582 35.4453 126 35.4453H142C146.418 35.4453 150 39.027 150 43.4453V59.4453C150 63.8636 146.418 67.4453 142 67.4453H126C121.582 67.4453 118 63.8636 118 59.4453V43.4453Z" fill="#171A21"/>
<path d="M129.92 46.9853C129.12 46.6453 128.78 45.6553 129.26 44.9353C130.23 43.4953 131.85 42.4453 133.99 42.4453C136.34 42.4453 137.95 43.5153 138.77 44.8553C139.47 46.0053 139.88 48.1553 138.8 49.7553C137.6 51.5253 136.45 52.0653 135.83 53.2053C135.68 53.4753 135.59 53.6953 135.53 54.1453C135.44 54.8753 134.84 55.4453 134.1 55.4453C133.23 55.4453 132.52 54.6953 132.62 53.8253C132.68 53.3153 132.8 52.7853 133.08 52.2853C133.85 50.8953 135.33 50.0753 136.19 48.8453C137.1 47.5553 136.59 45.1453 134.01 45.1453C132.84 45.1453 132.08 45.7553 131.61 46.4853C131.26 47.0553 130.53 47.2353 129.92 46.9853ZM136 59.4453C136 60.5453 135.1 61.4453 134 61.4453C132.9 61.4453 132 60.5453 132 59.4453C132 58.3453 132.9 57.4453 134 57.4453C135.1 57.4453 136 58.3453 136 59.4453Z" fill="#363A45"/>
<path d="M154 43.4453C154 39.027 157.582 35.4453 162 35.4453H210C214.418 35.4453 218 39.027 218 43.4453V59.4453C218 63.8636 214.418 67.4453 210 67.4453H162C157.582 67.4453 154 63.8636 154 59.4453V43.4453Z" fill="#171A21"/>
<path d="M121.809 160.736H214.191C218.333 160.736 221.691 164.094 221.691 168.236V260.236C221.691 264.378 218.333 267.736 214.191 267.736H121.809C117.666 267.736 114.309 264.378 114.309 260.236L114.309 168.236C114.309 164.094 117.666 160.736 121.809 160.736Z" fill="black" fill-opacity="0.2"/>
<path d="M121.809 160.736H214.191C218.333 160.736 221.691 164.094 221.691 168.236V260.236C221.691 264.378 218.333 267.736 214.191 267.736H121.809C117.666 267.736 114.309 264.378 114.309 260.236L114.309 168.236C114.309 164.094 117.666 160.736 121.809 160.736Z" stroke="#1D212B"/>
<path d="M168 248.604C159.616 248.604 152.928 245.5 147.936 239.292C143.008 233.084 140.544 224.732 140.544 214.236C140.544 203.74 143.04 195.388 148.032 189.18C153.024 182.972 159.712 179.868 168.096 179.868C176.544 179.868 183.2 182.972 188.064 189.18C192.992 195.324 195.456 203.676 195.456 214.236C195.456 224.732 192.992 233.084 188.064 239.292C183.2 245.5 176.512 248.604 168 248.604ZM168.096 237.468C177.248 237.468 181.824 229.724 181.824 214.236C181.824 206.94 180.704 201.244 178.464 197.148C176.224 193.052 172.768 191.004 168.096 191.004C163.36 191.004 159.84 193.052 157.536 197.148C155.296 201.244 154.176 206.94 154.176 214.236C154.176 221.532 155.296 227.228 157.536 231.324C159.84 235.42 163.36 237.468 168.096 237.468Z" fill="#363A45"/>
<path d="M113.809 284.236C113.809 279.818 117.39 276.236 121.809 276.236H214.191C218.609 276.236 222.191 279.818 222.191 284.236V469.818C222.191 474.237 218.609 477.818 214.191 477.818H121.809C117.39 477.818 113.809 474.237 113.809 469.818L113.809 284.236Z" fill="black" fill-opacity="0.2"/>
<path d="M113.809 493.818C113.809 489.4 117.39 485.818 121.809 485.818H214.191C218.609 485.818 222.191 489.4 222.191 493.818V679.4C222.191 683.819 218.609 687.4 214.191 687.4H121.809C117.39 687.4 113.809 683.819 113.809 679.4V493.818Z" fill="black" fill-opacity="0.2"/>
<path fill-rule="evenodd" clip-rule="evenodd" d="M132.165 561.109C135.018 561.109 137.331 563.451 137.331 566.34V606.879C137.331 609.767 135.018 612.109 132.165 612.109C129.313 612.109 127 609.767 127 606.879V566.34C127 563.451 129.313 561.109 132.165 561.109ZM167.603 573.107C170.456 573.107 172.769 575.449 172.769 578.338V606.879C172.769 609.767 170.456 612.109 167.603 612.109C164.751 612.109 162.438 609.767 162.438 606.879V578.338C162.438 575.449 164.751 573.107 167.603 573.107ZM203.835 581.568C206.687 581.568 209 583.91 209 586.799V606.879C209 609.767 206.687 612.109 203.835 612.109C200.982 612.109 198.669 609.767 198.669 606.879V586.799C198.669 583.91 200.982 581.568 203.835 581.568Z" fill="#20242F"/>
<path d="M227.118 -240.973C227.118 -245.391 230.699 -248.973 235.118 -248.973H327.5C331.918 -248.973 335.5 -245.391 335.5 -240.973V95.0273C335.5 99.4456 331.918 103.027 327.5 103.027H235.118C230.699 103.027 227.118 99.4456 227.118 95.0273V-240.973Z" fill="black" fill-opacity="0.2"/>
<path d="M235.118 111.527H327.5C331.642 111.527 335 114.885 335 119.027V211.027C335 215.169 331.642 218.527 327.5 218.527H235.118C230.976 218.527 227.618 215.169 227.618 211.027V119.027C227.618 114.885 230.976 111.527 235.118 111.527Z" fill="black" fill-opacity="0.2"/>
<path d="M235.118 111.527H327.5C331.642 111.527 335 114.885 335 119.027V211.027C335 215.169 331.642 218.527 327.5 218.527H235.118C230.976 218.527 227.618 215.169 227.618 211.027V119.027C227.618 114.885 230.976 111.527 235.118 111.527Z" stroke="#1D212B"/>
<path d="M285.101 198.292V183.988H254.765V169.876L284.621 131.764H297.869V173.524H307.853V183.988H297.869V198.292H285.101ZM265.325 173.236V173.524H285.101V147.988H284.909L265.325 173.236Z" fill="#363A45"/>
<path d="M227.118 235.027C227.118 230.609 230.699 227.027 235.118 227.027H327.5C331.918 227.027 335.5 230.609 335.5 235.027V419.027C335.5 423.446 331.918 427.027 327.5 427.027H235.118C230.699 427.027 227.118 423.446 227.118 419.027V235.027Z" fill="black" fill-opacity="0.2"/>
<path fill-rule="evenodd" clip-rule="evenodd" d="M245.474 301.527C248.327 301.527 250.64 303.869 250.64 306.758V347.297C250.64 350.185 248.327 352.527 245.474 352.527C242.622 352.527 240.309 350.185 240.309 347.297V306.758C240.309 303.869 242.622 301.527 245.474 301.527ZM280.912 313.525C283.765 313.525 286.078 315.867 286.078 318.755V347.297C286.078 350.185 283.765 352.527 280.912 352.527C278.06 352.527 275.747 350.185 275.747 347.297V318.755C275.747 315.867 278.06 313.525 280.912 313.525ZM317.144 321.986C319.996 321.986 322.309 324.328 322.309 327.217V347.297C322.309 350.185 319.996 352.527 317.144 352.527C314.291 352.527 311.978 350.185 311.978 347.297V327.217C311.978 324.328 314.291 321.986 317.144 321.986Z" fill="#20242F"/>
<path d="M227.118 443.027C227.118 438.609 230.699 435.027 235.118 435.027H327.5C331.918 435.027 335.5 438.609 335.5 443.027V627.027C335.5 631.446 331.918 635.027 327.5 635.027H235.118C230.699 635.027 227.118 631.446 227.118 627.027V443.027Z" fill="black" fill-opacity="0.2"/>
<path d="M231.309 527.027C231.309 522.609 234.891 519.027 239.309 519.027H255.309C259.727 519.027 263.309 522.609 263.309 527.027V543.027C263.309 547.446 259.727 551.027 255.309 551.027H239.309C234.891 551.027 231.309 547.446 231.309 543.027V527.027Z" fill="#171A21"/>
<path d="M243.229 530.567C242.429 530.227 242.089 529.237 242.569 528.517C243.539 527.077 245.159 526.027 247.299 526.027C249.649 526.027 251.259 527.097 252.079 528.437C252.779 529.587 253.189 531.737 252.109 533.337C250.909 535.107 249.759 535.647 249.139 536.787C248.989 537.057 248.899 537.277 248.839 537.727C248.749 538.457 248.149 539.027 247.409 539.027C246.539 539.027 245.829 538.277 245.929 537.407C245.989 536.897 246.109 536.367 246.389 535.867C247.159 534.477 248.639 533.657 249.499 532.427C250.409 531.137 249.899 528.727 247.319 528.727C246.149 528.727 245.389 529.337 244.919 530.067C244.569 530.637 243.839 530.817 243.229 530.567ZM249.309 543.027C249.309 544.127 248.409 545.027 247.309 545.027C246.209 545.027 245.309 544.127 245.309 543.027C245.309 541.927 246.209 541.027 247.309 541.027C248.409 541.027 249.309 541.927 249.309 543.027Z" fill="#363A45"/>
<path d="M267.309 527.027C267.309 522.609 270.891 519.027 275.309 519.027H323.309C327.727 519.027 331.309 522.609 331.309 527.027V543.027C331.309 547.446 327.727 551.027 323.309 551.027H275.309C270.891 551.027 267.309 547.446 267.309 543.027V527.027Z" fill="#171A21"/>
</g>
<defs>
<clipPath id="clip0_702_67337">
<rect width="335" height="640" fill="white" transform="translate(0.5)"/>
</clipPath>
</defs>
</svg>
