<svg width="147" height="24" viewBox="0 0 147 24" fill="none" xmlns="http://www.w3.org/2000/svg">
<path d="M138.317 23.6858C137.424 23.6858 136.752 23.4653 136.301 23.0244C135.86 22.5729 135.639 21.943 135.639 21.1346V8.99287H132.789V6.48892H135.702L136.002 2.03223H138.758V6.48892H142.758V8.99287H138.758V21.1819H142.758V23.6858H138.317Z" fill="#FEF9F5"/>
<path d="M117.426 6.48879H120.56V10.2998H120.701C121.142 9.01898 121.835 8.0111 122.78 7.27619C123.725 6.54128 124.922 6.17383 126.371 6.17383C127.515 6.17383 128.502 6.4258 129.331 6.92974C130.161 7.42317 130.796 8.14758 131.237 9.10297C131.678 10.0478 131.898 11.1922 131.898 12.536V23.6857H128.764V13.2132C128.764 12.2998 128.633 11.5229 128.371 10.8825C128.108 10.2316 127.72 9.73814 127.205 9.40218C126.691 9.06622 126.061 8.89824 125.316 8.89824C124.297 8.89824 123.431 9.15546 122.717 9.6699C122.014 10.1738 121.478 10.9192 121.111 11.9061C120.743 12.8825 120.56 14.0636 120.56 15.4494V23.6857H117.426V6.48879Z" fill="#FEF9F5"/>
<path d="M108.059 24.0005C106.442 24.0005 105.03 23.633 103.823 22.8981C102.615 22.1632 101.681 21.1239 101.019 19.78C100.358 18.4362 100.027 16.8771 100.027 15.1028C100.027 13.3391 100.363 11.7853 101.035 10.4414C101.707 9.08709 102.647 8.04247 103.854 7.30756C105.072 6.56216 106.474 6.18945 108.059 6.18945C109.529 6.18945 110.836 6.53066 111.98 7.21308C113.135 7.89549 114.022 8.95586 114.642 10.3942C115.271 11.822 115.518 13.6068 115.382 15.7485H101.838L101.823 13.3548H112.232C112.211 12.4099 112.027 11.5858 111.681 10.8824C111.345 10.179 110.862 9.63828 110.232 9.26032C109.613 8.87187 108.888 8.67765 108.059 8.67765C107.156 8.67765 106.353 8.88762 105.649 9.30757C104.956 9.71702 104.4 10.3784 103.98 11.2918C103.56 12.1947 103.329 13.3653 103.287 14.8036C103.256 16.179 103.434 17.3706 103.823 18.3784C104.222 19.3863 104.788 20.158 105.523 20.6934C106.258 21.2183 107.103 21.4808 108.059 21.4808C109.151 21.4808 110.059 21.2236 110.783 20.7092C111.508 20.1842 112.006 19.4178 112.279 18.4099H115.46C115.282 19.4178 114.867 20.347 114.216 21.1973C113.576 22.0477 112.726 22.7302 111.665 23.2446C110.615 23.7485 109.413 24.0005 108.059 24.0005Z" fill="#FEF9F5"/>
<path d="M91.3398 6.48829H94.3005V10.1733H94.4422C94.7887 8.74551 95.3031 7.75338 95.9855 7.19695C96.6679 6.64052 97.5341 6.3623 98.5839 6.3623H100.395V9.33868H98.2375C97.3766 9.33868 96.6679 9.55391 96.1115 9.98436C95.5551 10.4043 95.1404 11.0605 94.8674 11.9529C94.5944 12.8348 94.458 13.9844 94.458 15.4017V23.6852H91.3398V6.48829Z" fill="#FEF9F5"/>
<path d="M81.9924 24.0005C80.3756 24.0005 78.9636 23.633 77.7562 22.8981C76.5489 22.1632 75.6145 21.1239 74.9531 19.78C74.2916 18.4362 73.9609 16.8771 73.9609 15.1028C73.9609 13.3391 74.2969 11.7853 74.9688 10.4414C75.6407 9.08709 76.5804 8.04247 77.7877 7.30756C79.0056 6.56216 80.4071 6.18945 81.9924 6.18945C83.4623 6.18945 84.7693 6.53066 85.9137 7.21308C87.0686 7.89549 87.9557 8.95586 88.5751 10.3942C89.205 11.822 89.4518 13.6068 89.3153 15.7485H75.772L75.7562 13.3548H86.1657C86.1447 12.4099 85.9609 11.5858 85.6145 10.8824C85.2785 10.179 84.7956 9.63828 84.1657 9.26032C83.5462 8.87187 82.8218 8.67765 81.9924 8.67765C81.0895 8.67765 80.2864 8.88762 79.583 9.30757C78.8901 9.71702 78.3336 10.3784 77.9137 11.2918C77.4937 12.1947 77.2628 13.3653 77.2208 14.8036C77.1893 16.179 77.3678 17.3706 77.7562 18.3784C78.1552 19.3863 78.7221 20.158 79.457 20.6934C80.1919 21.2183 81.0371 21.4808 81.9924 21.4808C83.0843 21.4808 83.9924 21.2236 84.7168 20.7092C85.4413 20.1842 85.9399 19.4178 86.2129 18.4099H89.394C89.2155 19.4178 88.8008 20.347 88.1499 21.1973C87.5095 22.0477 86.6591 22.7302 85.5987 23.2446C84.5489 23.7485 83.3468 24.0005 81.9924 24.0005Z" fill="#FEF9F5"/>
<path d="M67.1944 9.07085H64.3125V6.48817H67.1944V3.22833C67.1944 2.6719 67.3046 2.17846 67.5251 1.74801C67.7456 1.30706 68.0605 0.971106 68.47 0.740135C68.8794 0.498665 69.3571 0.37793 69.9031 0.37793L74.3755 0.37793V2.96061H70.3283V6.48817H74.0605V9.07085H70.3283V23.685H67.1944V9.07085Z" fill="#FEF9F5"/>
<path d="M57.7999 9.07085H54.918V6.48817H57.7999V3.22833C57.7999 2.6719 57.9101 2.17846 58.1306 1.74801C58.351 1.30706 58.666 0.971106 59.0754 0.740135C59.4849 0.498665 59.9626 0.37793 60.5085 0.37793L64.981 0.37793V2.96061H60.9337V6.48817H64.666V9.07085H60.9337V23.685H57.7999V9.07085Z" fill="#FEF9F5"/>
<path d="M50.4007 6.4882H53.5188V23.6851H50.4007V6.4882ZM53.7392 0V3.46457H50.1172V0L53.7392 0Z" fill="#FEF9F5"/>
<path d="M28.8789 0.567383H37.1624C39.4616 0.567383 41.4616 1.03982 43.1624 1.98471C44.8632 2.91909 46.1755 4.25768 47.0994 6.00046C48.0233 7.73275 48.4852 9.77474 48.4852 12.1265C48.4852 14.4782 48.0233 16.5254 47.0994 18.2682C46.1755 20.0005 44.8632 21.3391 43.1624 22.2839C41.4616 23.2183 39.4616 23.6855 37.1624 23.6855H28.8789V0.567383ZM37.0994 20.9769C38.7057 20.9769 40.0968 20.6252 41.2726 19.9217C42.459 19.2183 43.3671 18.2 43.997 16.8666C44.6269 15.5333 44.9419 13.9532 44.9419 12.1265C44.9419 10.2997 44.6269 8.71962 43.997 7.38629C43.3671 6.05295 42.459 5.03458 41.2726 4.33117C40.0968 3.62775 38.7057 3.27605 37.0994 3.27605H32.2175V20.9769H37.0994Z" fill="#FEF9F5"/>
<rect y="0.401367" width="22.1732" height="23.1811" fill="#FEF9F5"/>
<path d="M146.733 4.42132H146.364C146.354 4.42132 146.348 4.41462 146.348 4.40457V2.47208C146.348 2.45533 146.321 2.44863 146.314 2.47208L145.875 4.41127C145.875 4.41797 145.865 4.42132 145.859 4.42132H145.239C145.232 4.42132 145.222 4.41797 145.222 4.41127L144.787 2.47208C144.78 2.44863 144.753 2.45533 144.753 2.47208V4.40457C144.753 4.41462 144.747 4.42132 144.737 4.42132H144.368C144.358 4.42132 144.352 4.41462 144.352 4.40457V2.08022C144.352 2.07018 144.358 2.06348 144.368 2.06348H145.065C145.075 2.06348 145.085 2.06683 145.088 2.08022L145.534 4.00601C145.541 4.02946 145.561 4.02946 145.567 4.00601L146.013 2.08022C146.016 2.06683 146.026 2.06348 146.033 2.06348H146.733C146.743 2.06348 146.75 2.07018 146.75 2.08022V4.40457C146.75 4.41462 146.743 4.42132 146.733 4.42132Z" fill="#FEF9F5"/>
<path d="M143.754 2.44863V4.40457C143.754 4.41462 143.748 4.42132 143.737 4.42132H143.369C143.359 4.42132 143.352 4.41462 143.352 4.40457V2.44863C143.352 2.43859 143.346 2.43189 143.336 2.43189H142.716C142.706 2.43189 142.699 2.42519 142.699 2.41514V2.08022C142.699 2.07018 142.706 2.06348 142.716 2.06348H144.391C144.401 2.06348 144.407 2.07018 144.407 2.08022V2.41514C144.407 2.42519 144.401 2.43189 144.391 2.43189H143.771C143.761 2.43189 143.754 2.43859 143.754 2.44863Z" fill="#FEF9F5"/>
</svg>
